# xmcd CD database file
#
# Track frame offsets:
#	150
#	36045
#	55632
#	81915
#	113155
#	149845
#	221020
#	256270
#	282372
#	303690
#	322367
#
# Disc length: 4673 seconds
#
# Revision: 0
# Processed by: cddbd v1.5.1PL0 Copyright (c) Steve Scherf et al.
# Submitted via: CDex 1.51
#
DISCID=ad123f0b
DTITLE=Musical Moods - In The Wee Hours
DYEAR=1900
DGENRE=New Age
TTITLE0=Violin Concerto In E II Adagio
TTITLE1=String Quartet In B Flat, III Adagio
TTITLE2=String Quartet In E Flat, III Affetuoso E Sostenuto
TTITLE3=Trio In E Minor "Dumky" II Lento
TTITLE4=Piano Concerto No.5 In E Flat "Emperor II Adagio Un Poco Mosso
TTITLE5=Piano Sonata No.32 In C Minor, II Arietta, Adagio Molto Sempliece
TTITLE6=Piano Concerto No.1 In B Flat Minor, II Andantino Simplice
TTITLE7=Nocturne In C Minor
TTITLE8=Granada
TTITLE9=Nocturne From Lyric Suite
TTITLE10=Piano Sonata No.23 In F Minor II Andante Con Moto
EXTD=
EXTT0=
EXTT1=
EXTT2=
EXTT3=
EXTT4=
EXTT5=
EXTT6=
EXTT7=
EXTT8=
EXTT9=
EXTT10=
PLAYORDER=
